<mxfile host="app.diagrams.net" modified="2021-05-26T02:38:00.281Z" agent="5.0 (Macintosh; Intel Mac OS X 10_15_7) AppleWebKit/605.1.15 (KHTML, like Gecko) Version/14.0.3 Safari/605.1.15" etag="TzvbWqzTJg1T1h1fTAJS" version="14.7.1" type="github">
  <diagram id="AIqt1i8gx9x0FpRuy8nn" name="Page-1">
    <mxGraphModel dx="946" dy="662" grid="1" gridSize="10" guides="1" tooltips="1" connect="1" arrows="1" fold="1" page="1" pageScale="1" pageWidth="827" pageHeight="1169" math="0" shadow="0">
      <root>
        <mxCell id="0" />
        <mxCell id="1" parent="0" />
        <mxCell id="9Ny-IWS7hl9-HqlLvZoX-3" style="edgeStyle=orthogonalEdgeStyle;rounded=0;orthogonalLoop=1;jettySize=auto;html=1;" edge="1" parent="1" source="9Ny-IWS7hl9-HqlLvZoX-1" target="9Ny-IWS7hl9-HqlLvZoX-2">
          <mxGeometry relative="1" as="geometry" />
        </mxCell>
        <mxCell id="9Ny-IWS7hl9-HqlLvZoX-1" value="" style="rounded=0;whiteSpace=wrap;html=1;" vertex="1" parent="1">
          <mxGeometry x="120" y="120" width="90" height="60" as="geometry" />
        </mxCell>
        <mxCell id="9Ny-IWS7hl9-HqlLvZoX-5" style="edgeStyle=orthogonalEdgeStyle;rounded=0;orthogonalLoop=1;jettySize=auto;html=1;entryX=0.5;entryY=0;entryDx=0;entryDy=0;" edge="1" parent="1" source="9Ny-IWS7hl9-HqlLvZoX-2" target="9Ny-IWS7hl9-HqlLvZoX-4">
          <mxGeometry relative="1" as="geometry" />
        </mxCell>
        <mxCell id="9Ny-IWS7hl9-HqlLvZoX-2" value="" style="rounded=1;whiteSpace=wrap;html=1;" vertex="1" parent="1">
          <mxGeometry x="105" y="270" width="120" height="60" as="geometry" />
        </mxCell>
        <mxCell id="9Ny-IWS7hl9-HqlLvZoX-4" value="" style="rhombus;whiteSpace=wrap;html=1;" vertex="1" parent="1">
          <mxGeometry x="75" y="410" width="180" height="80" as="geometry" />
        </mxCell>
      </root>
    </mxGraphModel>
  </diagram>
</mxfile>
